<svg xmlns="http://www.w3.org/2000/svg" viewBox="0 0 483.02 344.77">
    <defs>
        <style>.cls-1{fill:none;}</style>
    </defs>
    <g id="Layer_2" data-name="Layer 2">
        <g id="Layer_1-2" data-name="Layer 1">
            <path stroke="#FFFFFF99" stroke-width="10" class="cls-1" d="M40,331.84C76.81,310.28,110.47,284,142,255.29c28.32-25.79,56.74-52.38,79.66-83.22,11.33-15.24,21.23-31.63,28.49-49.21,6.29-15.24,10.41-30.74,8.17-47.31-3.86-28.58-24.87-54-54.57-57-16-1.62-34.21,3.57-47.38,12.86a83.42,83.42,0,0,0-17.9,17.84c-4.49,5.89-9.8,14.75-17,17.54l8.76-3.16c-1.82.5-1.06.58-1.61-1.09a26.22,26.22,0,0,1-.37-4.19,57.29,57.29,0,0,0-1.28-6.77,59.33,59.33,0,0,0-6.14-15.06A70.91,70.91,0,0,0,99.41,13.67C83.88,3,63.57-2.69,44.84,1.26,33.17,3.72,20.39,8.66,12.63,18.07,4.52,27.9,1.45,41,.45,53.41-1.86,82.06,5,111.87,14.51,138.74,20.2,154.88,28.14,170.1,36,185.29c11.77,22.84,24.56,45.21,39.54,66.1s32.26,39.29,50.87,56.75c9,8.41,18.53,16.39,29.52,22,11.43,5.88,24.16,9.25,36.76,11.43,24.32,4.2,49.59,4.82,73.48-2,20.28-5.75,40-14.41,57.24-26.52,15.74-11,31.76-25.09,41.35-42a122,122,0,0,0,14.49-40.79c1.87-12.06,1.78-27.71-9.43-35.42-11.62-8-28.38-4.07-39.57,3-13.26,8.32-18.67,25.91-20.41,40.59-2,16.68,1.16,35.57,12.1,48.85,15.36,18.65,41.59,12,61.26,5.09a485,485,0,0,0,64.8-27.7c12-6.27,23.66-13.13,35.06-20.43-2.72,1.74-6.65,1.66-9.4,3.42a446.44,446.44,0,0,1-47.43,26.64c-16.3,7.83-33.25,15.76-50.49,19.66-14.12,3.19-30.2,3.79-41.4-6.85-8.7-8.27-13.41-21.11-15.08-32.79-2.67-18.66,1.7-43.5,16.23-56.7a51.33,51.33,0,0,1,5.39-3.91c.85-.6,3.25-1.4-.73.07s-1.9.6-1,.53c1.53-.12,3-.45,4.55-.49a30.17,30.17,0,0,1,13.87,2.83c7.48,3.66,11.44,11,12.68,19,2.88,18.5-4.53,39-12.88,55.25-11.58,22.47-33.31,40.43-54.75,53a121.49,121.49,0,0,1-46.27,16.35c-16.16,2.15-32.94,1.08-49-1.24-16.8-2.43-33.84-6.85-48.37-15.89-13.77-8.56-25.18-20.29-36.66-31.59-24.14-23.76-43.93-51-60.88-80.27-8.47-14.62-16.26-29.62-23.75-44.77-4.26-8.62-8.49-17.2-11.89-26.2a263.45,263.45,0,0,1-14.16-54.1c-2.7-18.09-3.84-37.69,1.88-55.34,2.41-7.44,6.26-14.51,12-19.89A44.59,44.59,0,0,1,35,4.54C39.11,2.3,31.63,6,31.27,5.75a13.4,13.4,0,0,0,2.4-.67c1-.26,2.1-.48,3.15-.67a56.31,56.31,0,0,1,7.33-.83C70.69,2.21,98.08,16.8,111.35,39.9a59,59,0,0,1,7,19.1c.28,1.6.49,3.21.63,4.82s-.34,3.09,1,3.4c1.62.38,5.29-1.8,6.75-2.33,10.66-3.92,16.4-13.13,23.16-21.77a77.81,77.81,0,0,1,13.52-13.44,56.94,56.94,0,0,1,8.43-5.49c.83-.44,2.78-1.78,3.73-1.78-.26,0-4.78,1.22-.81.62,2.06-.31,4.08-.79,6.16-1a59.82,59.82,0,0,1,36,7.08c20.8,11.8,32.39,35.65,32.64,59.11.15,13.88-4.11,26.92-9.46,39.57a225,225,0,0,1-23.61,41.85c-18.33,26-40.88,48.71-63.93,70.5-25,23.63-50.72,46.47-78.57,66.74q-21,15.25-43.34,28.41c2.83-1.66,6.58-1.77,9.42-3.43Z" />
        </g>
    </g>
</svg>